<?xml version="1.0" standalone="no"?>
<!DOCTYPE svg PUBLIC "-//W3C//DTD SVG 20010904//EN"
 "http://www.w3.org/TR/2001/REC-SVG-20010904/DTD/svg10.dtd">
<svg version="1.0" xmlns="http://www.w3.org/2000/svg"
 width="40.000000pt" height="40.000000pt" viewBox="0 0 40.000000 40.000000"
 preserveAspectRatio="xMidYMid meet">

<g transform="translate(0.000000,40.000000) scale(0.100000,-0.100000)"
fill="#000000" stroke="none">
<path d="M116 283 c-3 -4 10 -24 31 -45 l37 -38 -38 -39 c-50 -52 -29 -68 23
-17 l37 36 33 -36 c24 -26 36 -33 44 -25 8 8 2 21 -23 46 l-34 35 34 35 c25
25 31 38 23 46 -8 8 -20 1 -44 -25 l-33 -36 -36 35 c-38 37 -42 39 -54 28z"/>
</g>
</svg>
